<?xml version="1.0" encoding="iso-8859-1"?>
<!-- Uploaded to: SVG Repo, www.svgrepo.com, Generator: SVG Repo Mixer Tools -->
<!DOCTYPE svg PUBLIC "-//W3C//DTD SVG 1.1//EN" "http://www.w3.org/Graphics/SVG/1.1/DTD/svg11.dtd">
<svg fill="#000000" version="1.1" id="Capa_1" xmlns="http://www.w3.org/2000/svg" xmlns:xlink="http://www.w3.org/1999/xlink" 
	 width="800px" height="800px" viewBox="0 0 275.44 275.44"
	 xml:space="preserve">
<g>
	<path d="M150.938,117.41c-1.4,1.4-2.7,2.7-4.101,4.1c-0.5,0.101-0.3,0.9,0.2,0.801c2.7-0.5,4.1-2,4.6-4.601
		C151.838,117.11,151.038,116.91,150.938,117.41z"/>
	<path d="M224.538,19.41c-76.7-20.2-165.4,67-203.1,122.9c-25.2,37.3-39.8,110.8,24.3,109.6c0.8,1.2,1.9,2.2,3.7,2.7
		c72.7,21,152.9-37.101,194.7-92C280.138,115.41,298.138,38.81,224.538,19.41z M168.738,40.209c-7.4,9.7-11.3,22-7.601,34.101
		c-9.699,3-19,8.399-27.4,14.199c-3.2-2.6-4.7-6.3-5.8-10.5c-1.5-6,0.2-12.3-1.7-18.1C139.938,51.709,154.238,44.91,168.738,40.209z
		 M40.138,164.81c-6.2,4.1-16.8,10.8-23.6,18.699c9-24.8,28.3-50.5,40.6-65c4,2,10.5,1.7,14,2.2c7.2,1,14.6,2.101,21.6,4.4
		c-5.5,7.1-9.9,14.8-12.3,22.8C68.738,143.61,49.038,158.91,40.138,164.81z M83.138,244.209c0.1-0.399,0.2-0.7,0.2-1.1
		c0.2-13.2-0.4-26.4,0.4-39.601c0.8-14.899,7-27,9.4-41.1c0.2-1.3,0.1-2.4-0.4-3.4c5.6-0.3,10.9-1.3,16-2.8
		c-0.1,0.5-0.2,0.9-0.3,1.4c-1.7,9.7,3.4,19.5,8.2,27.5c5,8.399,21.8,32.6,36.2,37.6C131.038,234.91,107.138,243.209,83.138,244.209
		z M129.838,135.91c-1.6-0.8-3.6-1-5.7,0c-9.7,4.7-18.6,8.5-28.6,9.6c6.2-13.1,18.5-24.1,28.7-33.199
		c12.1-10.7,32.4-27.301,50.6-27.9C171.538,105.41,149.538,127.41,129.838,135.91z M229.338,157.709
		c-7.1-9.899-16.399-18.3-24.899-27c-4.601-4.6-9.101-9.2-13.4-14.1c-3.6-4.101-5.4-8.7-10.7-10.4c-0.3-0.1-0.7,0-1.1,0.101
		c5.399-8.801,9-18.4,8.899-28c0-0.301-0.1-0.7-0.199-1c3.3,1.399,6.199,0,7.6-2.5c0.7,0.399,1.3,0.8,2,1
		c-1.6,0.6-3.3,1.199-4.8,1.8c-5.101,1.899-4.601,9.8,1.3,9.8c8.5,0.1,17-2.6,25.3-4.2c13.5-2.6,25.601-3.399,39.101-0.8
		c0.699,0.1,1.399,0.1,2.1,0c0.5,13.7-2.5,28.3-8.1,40.8C246.738,135.81,238.538,147.11,229.338,157.709z"/>
</g>
</svg>