<?xml version="1.0" encoding="iso-8859-1"?>
<!-- Uploaded to: SVG Repo, www.svgrepo.com, Generator: SVG Repo Mixer Tools -->
<!DOCTYPE svg PUBLIC "-//W3C//DTD SVG 1.1//EN" "http://www.w3.org/Graphics/SVG/1.1/DTD/svg11.dtd">
<svg fill="#000000" version="1.1" id="Capa_1" xmlns="http://www.w3.org/2000/svg" xmlns:xlink="http://www.w3.org/1999/xlink" 
	 width="800px" height="800px" viewBox="0 0 281.958 281.958"
	 xml:space="preserve">
<g>
	<g>
		<path d="M274.084,169.591c-0.5-0.9-1.301-1.601-2.5-1.8c-7.301-1.2-14.601-2.2-21.9-3.101c0.8-20.6,2.2-51.5-13-66.7
			c-7-7-17-10.5-28-12l0,0c0.1-0.1,0.1-0.3,0.1-0.4c0.4-0.7,0.601-1.4,0.9-2.2c0.9-2.9,1.1-6.1,1.1-9.1c0-2-1.1-4.4-3-5.2
			c-4.199-1.9-9.6-2.7-13.199-5.4c-3.5-2.6-9.101,0.9-8.801,5c0.4,5.5-0.3,11.3,1.801,16.5c-4.301,0.1-8.601,0.3-12.7,0.7
			c0.1,0,0.2,0,0.3-0.1c4-2.3,4.6-7.1,5.1-11.2c0.9-8.1,0.9-16.5-1.399-24.3c-0.8-2.6-3.2-4.5-5.9-4.5c-7.1,0-15.5-0.5-22.2,2.2
			c-3.3,1.3-4.8,3.9-4.199,7.4c1,6.3,2.5,12.4,3.3,18.8c0.6,4.7,1.2,9.3,2.399,13.9c-0.699,0.1-1.399,0.1-2.1,0.2
			c-27.2,2.2-60.9-3-86.6,7.5c-26.2,10.6-8,37.1-12.3,55.3c-0.1,0.3,0,0.6,0,0.899c-17.6-0.3-34.6,1.9-44.8,10.9
			c-2.9-1.6-7.7,0.8-6.2,4.6c7.2,17.7,16.6,43.9,33.7,54.9c19.4,12.5,58.9,7.3,81,8.4c38.2,1.8,78,8.899,116,3.3
			c27.7-4.101,40.9-32.601,50.5-55.2C283.584,173.291,278.283,168.391,274.084,169.591z M82.284,103.291c18.9-2.4,38.5-0.5,57.5-1.9
			c26.2-2,52.8-5.4,78.7,0.5c22.601,5.2,18.5,40.7,19.9,61.6c-44.601-4.6-89.3-4.699-134.2-7.199c-10.5-0.601-25.7-2.9-41.5-4
			C66.384,133.19,50.284,107.391,82.284,103.291z M67.084,195.19c-2.9-4.6-2.3-9.6,0.1-13.8l0,0c7.4-3,14.9-5.3,21.2,1
			c4.6,4.6,4.2,11.5-0.3,15.8C81.884,203.99,71.384,202.091,67.084,195.19z M149.283,199.49c-4.5,5.5-12.6,4.601-17.299-0.3
			c-4.2-4.399,0.2-10.1,4.8-13.7c0.5,0.101,1.1,0,1.7-0.1c4.6-1,10.299-4.3,13.2,1.3C153.684,190.49,151.884,196.391,149.283,199.49
			z M222.584,206.591c-2.801,5.899-11,5.7-15.601,2c-5-4-4.2-11.5-0.2-15.601c0.301,0,0.7-0.1,1.101-0.199c4.6-1.801,9.7-7,13.5-1.5
			C224.283,195.391,224.783,201.99,222.584,206.591z M242.783,211.891c0.5-2.5-0.899-5.2-4.199-5.2c-2.101,0-4.2-0.1-6.2-0.2
			c1.7-6.5,0.6-13.899-2.601-19.5c-5.699-9.8-20.399-10-26.6-0.399c-0.3,0.5-0.4,1-0.5,1.5c-5.9,3.399-8.3,12.1-6.3,19.5
			c-13.3-2.101-26.5-2.601-39.8-2.4c4.8-5.899,6.699-14.5,4-21.5c-3.801-10.1-16.9-12.3-25.4-6.3c-1.3,0.9-1.9,2.2-2,3.5
			c-8.4,3.1-14.4,12.2-9.8,21.3c0.8,1.7,2,3.101,3.3,4.4c-5.9,0.399-11.9,0.8-17.8,1.1c-6.3,0.3-12.6,0.2-18.8-0.3
			c0.1-0.1,0.3-0.1,0.4-0.2c10.3-5.399,12.6-18.2,6.8-27.7c-6.9-11.3-22.8-12.8-33.2-5.6c-1,0.7-1.5,1.7-1.7,2.8
			c-5.2,5.2-6.9,13.5-3.6,20.9c1.1,2.5,2.7,4.6,4.6,6.3c-10.7-1.8-21.4-3.7-32.1-4.8l0,0c-0.3,0-0.5,0-0.8,0.1
			c-6.4-8.2-11.2-18.3-21.1-26.8c0.6,0.5,1.5-0.1,1.1-0.9c-0.4-1.1-0.8-2.199-1.2-3.3c83.4-15.7,176.3,4.7,260.1,7.8
			C262.084,190.791,254.084,203.291,242.783,211.891z"/>
		<path d="M99.684,122.091c-0.6-4.1-1.8-6.5-6-7.8c-5.2-1.6-11-1.6-16.4-1.6c-2.6,0-4.8,2.2-4.8,4.8c0.1,7-0.3,15.4,2.3,22.2
			c-2.1,0.7-2.7,3.7-0.1,4.601c2.6,1,5,1.1,7.8,0.8c2.2-0.2,7.6-2.3,9.5-1.4c2.2,1,4.6,0.601,5.9-1.5
			C101.184,136.591,100.584,128.091,99.684,122.091z M84.684,138.291c-0.5,0.1-1,0.2-1.6,0.4c-0.1-3.3-0.7-6.6-0.9-10
			c-0.1-2.1-0.1-4.2-0.1-6.4c2.8,0.1,5.6,0.4,8.4,1c1.1,4,0.8,9.3-0.1,13.5C88.584,137.391,86.484,137.791,84.684,138.291z"/>
		<path d="M136.684,121.19c-1.7-8.5-8.5-10.4-16.3-10.4c-2.1,0-3.9,1.4-4.5,3.4c-1.4,4.3-2.2,8.8-2.6,13.3c-0.4,4.2-0.7,10,2.9,12.8
			c1.3,1.1,3.3,1.2,4.6,0.1c0.6,0.1,1.3,0.2,1.9,0.4c2.6,0.5,5.2,0.8,7.8,1.399c1.8,0.4,4-0.2,4.9-2
			C138.284,134.69,137.884,127.091,136.684,121.19z M122.584,133.791c0-1.5-0.1-3.1-0.1-4.7c0.1-3,0.8-6,1.6-9
			c1.2,0.1,2.3,0.3,2.8,0.9c0.9,1.3,1.2,3.2,1.4,4.7c0.3,2.8,0.1,5.4-0.3,8.1C126.284,133.891,124.384,133.69,122.584,133.791z"/>
		<path d="M176.384,119.19c-0.601-3.7-2.101-5.6-5.8-6.8c-4.101-1.3-8.5-1.5-12.7-1.5c-1.5,0-3.4,0.9-4,2.3
			c-2.9,6.4-4.101,16.6,0.5,22.8c-1.8,1.3-0.8,4.5,1.6,4.7c4.601,0.4,9.7-1.4,13.8-0.3c1.801,0.5,4.2-0.3,5-2
			C177.584,132.491,177.483,125.491,176.384,119.19z M162.983,133.891c-0.5-1.9-1.1-3.7-1.8-5.7c-0.8-2.6-0.8-5.3-0.1-7.9
			c2.199,0.1,4.3,0.5,6.399,1c0.9,3.3,0.8,7.7,0,11.2C165.983,133.091,164.483,133.491,162.983,133.891z"/>
		<path d="M219.684,117.491c-0.7-4.4-2.4-6.2-6.6-7.5c-3.801-1.2-8.101-1.1-12-1.1c-2.2,0-4.101,1.5-4.7,3.6
			c-1.5,5-2.101,10.3-2.8,15.5c-0.5,4.2-1.601,8.3,0.3,12.2c1.2,2.4,4.5,2.4,6.3,0.7c0.3,0.1,0.5,0.1,0.9,0.2
			c4.399,0.5,8.8,1.2,13.199,1.6c2.101,0.2,3.601-1.5,4.301-3.3C221.283,132.491,220.783,124.491,219.684,117.491z M203.184,128.991
			c0.4-3.5,1-7,1.8-10.4c1.7,0,3.5,0.2,5.101,0.6c1,4.8,1,10,0.3,14.8c-2.601,0.3-5.3,0.7-7.9,1
			C202.783,132.991,202.884,130.991,203.184,128.991z"/>
	</g>
</g>
</svg>